<svg width="426" height="94" viewBox="0 0 426 94" fill="none" xmlns="http://www.w3.org/2000/svg">
<path d="M42.592 0.479996H61.536V92H48.48L46.56 85.344H45.92C44.7253 87.2213 42.6347 89.056 39.648 90.848C36.7467 92.5547 32.9067 93.408 28.128 93.408C24.1173 93.408 20.4053 92.6827 16.992 91.232C13.5787 89.696 10.6347 87.5627 8.16 84.832C5.68533 82.016 3.72267 78.6453 2.272 74.72C0.906667 70.7093 0.224 66.2293 0.224 61.28C0.224 56.416 0.864 52.0213 2.144 48.096C3.424 44.0853 5.25867 40.7147 7.648 37.984C10.1227 35.168 13.152 32.992 16.736 31.456C20.32 29.92 24.3733 29.152 28.896 29.152C31.712 29.152 34.3573 29.5787 36.832 30.432C39.392 31.2 41.312 32.1813 42.592 33.376V0.479996ZM42.592 47.2C41.824 46.176 40.6293 45.1947 39.008 44.256C37.3867 43.3173 35.5947 42.848 33.632 42.848C31.6693 42.848 29.8347 43.1893 28.128 43.872C26.4213 44.4693 24.8853 45.4933 23.52 46.944C22.24 48.3947 21.216 50.272 20.448 52.576C19.68 54.7947 19.296 57.568 19.296 60.896C19.296 67.296 20.5333 72.032 23.008 75.104C25.568 78.0907 28.8533 79.584 32.864 79.584C35.3387 79.584 37.3867 78.944 39.008 77.664C40.7147 76.384 41.9093 75.0187 42.592 73.568V47.2ZM70.146 35.936C73.6447 33.888 77.57 32.2667 81.922 31.072C86.3593 29.792 90.882 29.152 95.49 29.152C103.085 29.152 109.186 30.9867 113.794 34.656C118.402 38.3253 120.706 44.1707 120.706 52.192V92H106.242L104.578 85.856H104.066C102.359 88.0747 99.97 89.9093 96.898 91.36C93.9113 92.7253 90.37 93.408 86.274 93.408C82.7753 93.408 79.7033 92.896 77.058 91.872C74.498 90.848 72.3647 89.4827 70.658 87.776C68.9513 86.0693 67.6287 84.064 66.69 81.76C65.8367 79.3707 65.41 76.8533 65.41 74.208C65.41 70.624 66.178 67.552 67.714 64.992C69.3353 62.432 71.4687 60.3413 74.114 58.72C76.8447 57.0987 80.002 55.904 83.586 55.136C87.2553 54.368 91.138 53.984 95.234 53.984H101.634V50.656C101.634 48.352 100.823 46.6027 99.202 45.408C97.5807 44.128 95.2767 43.488 92.29 43.488C89.73 43.488 87.2127 43.872 84.738 44.64C82.2633 45.408 79.5327 46.6453 76.546 48.352L70.146 35.936ZM101.762 65.504L97.538 65.632C95.1487 65.7173 93.1433 65.9733 91.522 66.4C89.9007 66.8267 88.578 67.3813 87.554 68.064C86.6153 68.6613 85.9327 69.4293 85.506 70.368C85.0793 71.2213 84.866 72.1173 84.866 73.056C84.866 75.7013 85.634 77.536 87.17 78.56C88.7913 79.4987 90.626 79.968 92.674 79.968C94.722 79.968 96.5567 79.3707 98.178 78.176C99.8847 76.9813 101.079 75.6587 101.762 74.208V65.504ZM126.814 92V30.56H141.662L143.582 41.312C144.35 39.776 145.289 38.2827 146.398 36.832C147.507 35.296 148.83 33.9733 150.366 32.864C151.902 31.7547 153.651 30.8587 155.614 30.176C157.662 29.4933 159.923 29.152 162.398 29.152C164.275 29.152 165.982 29.408 167.518 29.92C169.139 30.3467 170.419 30.8587 171.358 31.456L168.286 46.176C167.347 45.664 166.153 45.1947 164.702 44.768C163.251 44.3413 161.459 44.128 159.326 44.128C155.401 44.128 152.115 45.408 149.47 47.968C146.91 50.528 145.63 54.9653 145.63 61.28V92H126.814ZM188.956 72.032V92H170.14V0.479996H188.956V53.856L208.156 30.56H231.068L207.9 56.416L232.092 92H209.82L193.564 67.296L188.956 72.032Z" fill="#A15DA1"/>
<path d="M270.217 46.304C267.913 45.1947 265.481 44.3413 262.921 43.744C260.361 43.0613 257.886 42.72 255.497 42.72C253.278 42.72 251.486 43.104 250.121 43.872C248.756 44.64 248.073 45.7067 248.073 47.072C248.073 48.5227 248.713 49.76 249.993 50.784C251.358 51.7227 254.004 52.7467 257.929 53.856L261.769 55.008C266.889 56.544 270.772 58.8053 273.417 61.792C276.062 64.6933 277.385 68.448 277.385 73.056C277.385 76.128 276.745 78.944 275.465 81.504C274.185 83.9787 272.35 86.112 269.961 87.904C267.657 89.696 264.841 91.0613 261.513 92C258.27 92.9387 254.644 93.408 250.633 93.408C246.281 93.408 242.398 93.024 238.985 92.256C235.657 91.488 232.542 90.3787 229.641 88.928L233.737 75.232C236.212 76.512 238.772 77.5787 241.417 78.432C244.148 79.2 246.921 79.584 249.737 79.584C252.98 79.584 255.241 79.1147 256.521 78.176C257.886 77.2373 258.569 76.128 258.569 74.848C258.569 74.08 258.398 73.44 258.057 72.928C257.801 72.3307 257.289 71.776 256.521 71.264C255.753 70.752 254.644 70.2827 253.193 69.856C251.828 69.344 250.036 68.7467 247.817 68.064L243.849 66.912C238.814 65.2907 235.145 63.072 232.841 60.256C230.537 57.3547 229.385 53.472 229.385 48.608C229.385 45.792 229.94 43.232 231.049 40.928C232.158 38.5387 233.737 36.4907 235.785 34.784C237.918 32.992 240.478 31.6267 243.465 30.688C246.537 29.664 250.036 29.152 253.961 29.152C257.886 29.152 261.513 29.536 264.841 30.304C268.254 30.9867 271.326 31.968 274.057 33.248L270.217 46.304ZM319.54 44.128H303.796V70.112C303.796 72.928 304.393 74.8907 305.588 76C306.868 77.1093 308.617 77.664 310.836 77.664C312.543 77.664 314.249 77.4933 315.956 77.152C317.663 76.8107 318.985 76.3413 319.924 75.744L322.74 88.672C321.289 89.44 319.071 90.208 316.084 90.976C313.183 91.6587 310.068 92 306.74 92C298.804 92 293.172 90.464 289.844 87.392C286.601 84.32 284.98 79.6693 284.98 73.44V44.128H275.38V30.56H284.98V11.872H303.796V30.56H319.54V44.128ZM324.621 35.936C328.12 33.888 332.045 32.2667 336.397 31.072C340.834 29.792 345.357 29.152 349.965 29.152C357.56 29.152 363.661 30.9867 368.269 34.656C372.877 38.3253 375.181 44.1707 375.181 52.192V92H360.717L359.053 85.856H358.541C356.834 88.0747 354.445 89.9093 351.373 91.36C348.386 92.7253 344.845 93.408 340.749 93.408C337.25 93.408 334.178 92.896 331.533 91.872C328.973 90.848 326.84 89.4827 325.133 87.776C323.426 86.0693 322.104 84.064 321.165 81.76C320.312 79.3707 319.885 76.8533 319.885 74.208C319.885 70.624 320.653 67.552 322.189 64.992C323.81 62.432 325.944 60.3413 328.589 58.72C331.32 57.0987 334.477 55.904 338.061 55.136C341.73 54.368 345.613 53.984 349.709 53.984H356.109V50.656C356.109 48.352 355.298 46.6027 353.677 45.408C352.056 44.128 349.752 43.488 346.765 43.488C344.205 43.488 341.688 43.872 339.213 44.64C336.738 45.408 334.008 46.6453 331.021 48.352L324.621 35.936ZM356.237 65.504L352.013 65.632C349.624 65.7173 347.618 65.9733 345.997 66.4C344.376 66.8267 343.053 67.3813 342.029 68.064C341.09 68.6613 340.408 69.4293 339.981 70.368C339.554 71.2213 339.341 72.1173 339.341 73.056C339.341 75.7013 340.109 77.536 341.645 78.56C343.266 79.4987 345.101 79.968 347.149 79.968C349.197 79.968 351.032 79.3707 352.653 78.176C354.36 76.9813 355.554 75.6587 356.237 74.208V65.504ZM381.289 92V30.56H396.137L398.057 41.312C398.825 39.776 399.764 38.2827 400.873 36.832C401.982 35.296 403.305 33.9733 404.841 32.864C406.377 31.7547 408.126 30.8587 410.089 30.176C412.137 29.4933 414.398 29.152 416.873 29.152C418.75 29.152 420.457 29.408 421.993 29.92C423.614 30.3467 424.894 30.8587 425.833 31.456L422.761 46.176C421.822 45.664 420.628 45.1947 419.177 44.768C417.726 44.3413 415.934 44.128 413.801 44.128C409.876 44.128 406.59 45.408 403.945 47.968C401.385 50.528 400.105 54.9653 400.105 61.28V92H381.289Z" fill="white"/>
</svg>
