<svg width="268" height="83" viewBox="0 0 268 83" fill="none" xmlns="http://www.w3.org/2000/svg">
<path d="M0.424 81V19.56H15.272L17.192 30.312C17.96 28.776 18.8987 27.2827 20.008 25.832C21.1173 24.296 22.44 22.9733 23.976 21.864C25.512 20.7547 27.2613 19.8587 29.224 19.176C31.272 18.4933 33.5333 18.152 36.008 18.152C37.8853 18.152 39.592 18.408 41.128 18.92C42.7493 19.3467 44.0293 19.8587 44.968 20.456L41.896 35.176C40.9573 34.664 39.7627 34.1947 38.312 33.768C36.8613 33.3413 35.0693 33.128 32.936 33.128C29.0107 33.128 25.7253 34.408 23.08 36.968C20.52 39.528 19.24 43.9653 19.24 50.28V81H0.424ZM95.668 55.784H55.988V56.296C55.988 60.5627 57.652 63.6773 60.98 65.64C64.308 67.6027 68.4893 68.584 73.524 68.584C77.0227 68.584 80.0947 68.2427 82.74 67.56C85.3853 66.8773 87.604 66.0667 89.396 65.128L92.852 78.184C90.548 79.2933 87.604 80.2747 84.02 81.128C80.5213 81.9813 76.212 82.408 71.092 82.408C66.484 82.408 62.0893 81.8107 57.908 80.616C53.812 79.336 50.1853 77.416 47.028 74.856C43.956 72.296 41.4813 69.0533 39.604 65.128C37.812 61.2027 36.916 56.5093 36.916 51.048C36.916 46.184 37.6413 41.7467 39.092 37.736C40.628 33.64 42.7613 30.1413 45.492 27.24C48.2227 24.3387 51.4653 22.12 55.22 20.584C59.06 18.9627 63.284 18.152 67.892 18.152C76.34 18.152 83.0813 20.712 88.116 25.832C93.1507 30.952 95.668 38.248 95.668 47.72V55.784ZM76.34 42.856C76.34 41.4053 76.1693 39.9973 75.828 38.632C75.4867 37.2667 74.932 36.072 74.164 35.048C73.4813 33.9387 72.5427 33.0853 71.348 32.488C70.2387 31.8053 68.8733 31.464 67.252 31.464C64.2653 31.464 61.7907 32.5307 59.828 34.664C57.8653 36.712 56.7133 39.528 56.372 43.112L76.34 42.856ZM137.705 33.128H121.961V59.112C121.961 61.928 122.558 63.8907 123.753 65C125.033 66.1093 126.782 66.664 129.001 66.664C130.708 66.664 132.414 66.4933 134.121 66.152C135.828 65.8107 137.15 65.3413 138.089 64.744L140.905 77.672C139.454 78.44 137.236 79.208 134.249 79.976C131.348 80.6587 128.233 81 124.905 81C116.969 81 111.337 79.464 108.009 76.392C104.766 73.32 103.145 68.6693 103.145 62.44V33.128H93.545V19.56H103.145V0.871994H121.961V19.56H137.705V33.128ZM180.674 19.56H199.618V81H185.666L183.746 74.344H183.234C182.381 75.1973 181.357 76.0933 180.162 77.032C178.967 77.9707 177.517 78.8667 175.81 79.72C174.189 80.488 172.311 81.128 170.178 81.64C168.045 82.152 165.613 82.408 162.882 82.408C156.226 82.408 151.021 80.5733 147.266 76.904C143.511 73.2347 141.634 67.816 141.634 60.648V19.56H160.578V59.112C160.578 62.2693 161.346 64.616 162.882 66.152C164.503 67.6027 166.551 68.328 169.026 68.328C172.013 68.328 174.445 67.7307 176.322 66.536C178.285 65.256 179.735 63.9333 180.674 62.568V19.56ZM267.629 49.896C267.629 54.9307 266.776 59.4533 265.069 63.464C263.448 67.4747 261.186 70.888 258.285 73.704C255.384 76.52 251.97 78.696 248.045 80.232C244.12 81.6827 239.896 82.408 235.373 82.408C230.85 82.408 226.626 81.7253 222.701 80.36C218.861 78.9093 215.533 76.8613 212.717 74.216C209.901 71.5707 207.682 68.328 206.061 64.488C204.44 60.5627 203.629 56.1253 203.629 51.176C203.629 45.9707 204.44 41.32 206.061 37.224C207.768 33.128 210.072 29.672 212.973 26.856C215.874 24.04 219.288 21.9067 223.213 20.456C227.138 18.92 231.362 18.152 235.885 18.152C240.408 18.152 244.589 18.8347 248.429 20.2C252.354 21.5653 255.725 23.6133 258.541 26.344C261.357 28.9893 263.576 32.2747 265.197 36.2C266.818 40.1253 267.629 44.6907 267.629 49.896ZM248.173 50.536C248.173 47.208 247.832 44.392 247.149 42.088C246.466 39.6987 245.528 37.7787 244.333 36.328C243.138 34.792 241.773 33.6827 240.237 33C238.701 32.3173 237.122 31.976 235.501 31.976C233.88 31.976 232.301 32.2747 230.765 32.872C229.314 33.4693 227.992 34.4933 226.797 35.944C225.688 37.3947 224.792 39.3147 224.109 41.704C223.426 44.008 223.085 46.952 223.085 50.536C223.085 56.7653 224.365 61.3307 226.925 64.232C229.485 67.1333 232.429 68.584 235.757 68.584C237.378 68.584 238.914 68.2853 240.365 67.688C241.901 67.0053 243.224 65.9813 244.333 64.616C245.528 63.1653 246.466 61.288 247.149 58.984C247.832 56.68 248.173 53.864 248.173 50.536Z" fill="#800080"/>
</svg>
